<?xml version="1.0" encoding="UTF-8" standalone="no"?>
<!DOCTYPE svg PUBLIC "-//W3C//DTD SVG 1.1//EN"
 "http://www.w3.org/Graphics/SVG/1.1/DTD/svg11.dtd">
<!-- Generated by graphviz version 2.40.1 (20161225.0304)
 -->
<!-- Title: %3 Pages: 1 -->
<svg width="250pt" height="214pt"
 viewBox="0.00 0.00 250.00 214.00" xmlns="http://www.w3.org/2000/svg" xmlns:xlink="http://www.w3.org/1999/xlink">
<g id="graph0" class="graph" transform="scale(1 1) rotate(0) translate(4 210)">
<title>%3</title>
<!-- &#45;8362797758171562618 -->
<g id="node1" class="node">
<title>&#45;8362797758171562618</title>
<polygon fill="#ffffff" stroke="#000000" points="54,-206 0,-206 0,-170 54,-170 54,-206"/>
<text text-anchor="middle" x="27" y="-184.9" font-family="Times,serif" font-size="12.00" fill="#000000">a (1)</text>
</g>
<!-- &#45;5199885474156309807 -->
<g id="node2" class="node">
<title>&#45;5199885474156309807</title>
<polygon fill="#ffffff" stroke="#000000" points="54,-121 0,-121 0,-85 54,-85 54,-121"/>
<text text-anchor="middle" x="27" y="-99.9" font-family="Times,serif" font-size="12.00" fill="#000000">b (1)</text>
</g>
<!-- &#45;8362797758171562618&#45;&gt;&#45;5199885474156309807 -->
<g id="edge1" class="edge">
<title>&#45;8362797758171562618&#45;&gt;&#45;5199885474156309807</title>
<path fill="none" stroke="#000000" d="M27,-169.9737C27,-158.7043 27,-143.9524 27,-131.1627"/>
<polygon fill="#000000" stroke="#000000" points="30.5001,-131.0003 27,-121.0003 23.5001,-131.0004 30.5001,-131.0003"/>
<text text-anchor="middle" x="30.5" y="-142.4" font-family="Times,serif" font-size="12.00" fill="#000000">1</text>
</g>
<!-- &#45;4827830182844313885 -->
<g id="node3" class="node">
<title>&#45;4827830182844313885</title>
<polygon fill="#9b9bff" stroke="#000000" points="178,-121 124,-121 124,-85 178,-85 178,-121"/>
<text text-anchor="middle" x="151" y="-99.9" font-family="Times,serif" font-size="12.00" fill="#000000">c (2)</text>
</g>
<!-- 486638707082106071 -->
<g id="node6" class="node">
<title>486638707082106071</title>
<polygon fill="#ffffff" stroke="#000000" points="142,-36 60,-36 60,0 142,0 142,-36"/>
<text text-anchor="middle" x="101" y="-14.9" font-family="Times,serif" font-size="12.00" fill="#000000">unlock(l1) (1)</text>
</g>
<!-- &#45;4827830182844313885&#45;&gt;486638707082106071 -->
<g id="edge2" class="edge">
<title>&#45;4827830182844313885&#45;&gt;486638707082106071</title>
<path fill="none" stroke="#000000" d="M140.3963,-84.9737C133.5021,-73.2535 124.3921,-57.7667 116.6692,-44.6377"/>
<polygon fill="#000000" stroke="#000000" points="119.6755,-42.8451 111.5884,-36.0003 113.6419,-46.3943 119.6755,-42.8451"/>
<text text-anchor="middle" x="132.5" y="-57.4" font-family="Times,serif" font-size="12.00" fill="#000000">1</text>
</g>
<!-- &#45;6163750703808568770 -->
<g id="node7" class="node">
<title>&#45;6163750703808568770</title>
<polygon fill="#ffffff" stroke="#000000" points="242,-36 160,-36 160,0 242,0 242,-36"/>
<text text-anchor="middle" x="201" y="-14.9" font-family="Times,serif" font-size="12.00" fill="#000000">unlock(l2) (1)</text>
</g>
<!-- &#45;4827830182844313885&#45;&gt;&#45;6163750703808568770 -->
<g id="edge3" class="edge">
<title>&#45;4827830182844313885&#45;&gt;&#45;6163750703808568770</title>
<path fill="none" stroke="#000000" d="M161.6037,-84.9737C168.4979,-73.2535 177.6079,-57.7667 185.3308,-44.6377"/>
<polygon fill="#000000" stroke="#000000" points="188.3581,-46.3943 190.4116,-36.0003 182.3245,-42.8451 188.3581,-46.3943"/>
<text text-anchor="middle" x="181.5" y="-57.4" font-family="Times,serif" font-size="12.00" fill="#000000">1</text>
</g>
<!-- 8886534378014012516 -->
<g id="node4" class="node">
<title>8886534378014012516</title>
<polygon fill="#ffffff" stroke="#000000" points="142,-206 72,-206 72,-170 142,-170 142,-206"/>
<text text-anchor="middle" x="107" y="-184.9" font-family="Times,serif" font-size="12.00" fill="#000000">lock(l1) (1)</text>
</g>
<!-- 8886534378014012516&#45;&gt;&#45;4827830182844313885 -->
<g id="edge4" class="edge">
<title>8886534378014012516&#45;&gt;&#45;4827830182844313885</title>
<path fill="none" stroke="#000000" d="M116.3313,-169.9737C122.3398,-158.3662 130.2609,-143.0641 137.0147,-130.017"/>
<polygon fill="#000000" stroke="#000000" points="140.1933,-131.49 141.6822,-121.0003 133.9768,-128.2721 140.1933,-131.49"/>
<text text-anchor="middle" x="135.5" y="-142.4" font-family="Times,serif" font-size="12.00" fill="#000000">1</text>
</g>
<!-- 1525616946081106370 -->
<g id="node5" class="node">
<title>1525616946081106370</title>
<polygon fill="#ffffff" stroke="#000000" points="230,-206 160,-206 160,-170 230,-170 230,-206"/>
<text text-anchor="middle" x="195" y="-184.9" font-family="Times,serif" font-size="12.00" fill="#000000">lock(l2) (1)</text>
</g>
<!-- 1525616946081106370&#45;&gt;&#45;4827830182844313885 -->
<g id="edge5" class="edge">
<title>1525616946081106370&#45;&gt;&#45;4827830182844313885</title>
<path fill="none" stroke="#000000" d="M185.6687,-169.9737C179.6602,-158.3662 171.7391,-143.0641 164.9853,-130.017"/>
<polygon fill="#000000" stroke="#000000" points="168.0232,-128.2721 160.3178,-121.0003 161.8067,-131.49 168.0232,-128.2721"/>
<text text-anchor="middle" x="179.5" y="-142.4" font-family="Times,serif" font-size="12.00" fill="#000000">1</text>
</g>
</g>
</svg>
