<?xml version="1.0" encoding="UTF-8" standalone="no"?>
<!DOCTYPE svg PUBLIC "-//W3C//DTD SVG 1.1//EN"
 "http://www.w3.org/Graphics/SVG/1.1/DTD/svg11.dtd">
<!-- Generated by graphviz version 2.40.1 (20161225.0304)
 -->
<!-- Pages: 1 -->
<svg width="1529pt" height="246pt"
 viewBox="0.00 0.00 1529.00 246.00" xmlns="http://www.w3.org/2000/svg" xmlns:xlink="http://www.w3.org/1999/xlink">
<g id="graph0" class="graph" transform="scale(1.0 1.0) rotate(0) translate(4 242)">
<polygon fill="#ffffff" stroke="transparent" points="-4,4 -4,-242 1525,-242 1525,4 -4,4"/>
<text text-anchor="middle" x="760.5" y="-222.8" font-family="Times,serif" font-size="14.00" fill="#000000">Inf(0)</text>
<text text-anchor="middle" x="760.5" y="-207.8" font-family="Times,serif" font-size="14.00" fill="#000000">[Büchi]</text>
<g id="clust1" class="cluster">
<title>cluster_0</title>
<polygon fill="none" stroke="#c0c0c0" points="984,-128 984,-180 1036,-180 1036,-128 984,-128"/>
</g>
<g id="clust2" class="cluster">
<title>cluster_1</title>
<polygon fill="none" stroke="#c0c0c0" points="507,-128 507,-180 559,-180 559,-128 507,-128"/>
</g>
<g id="clust3" class="cluster">
<title>cluster_2</title>
<polygon fill="none" stroke="#c0c0c0" points="1461,-84 1461,-136 1513,-136 1513,-84 1461,-84"/>
</g>
<g id="clust4" class="cluster">
<title>cluster_3</title>
<polygon fill="none" stroke="#c0c0c0" points="1461,-24 1461,-76 1513,-76 1513,-24 1461,-24"/>
</g>
<g id="clust5" class="cluster">
<title>cluster_4</title>
<polygon fill="none" stroke="#c0c0c0" points="984,-42 984,-94 1036,-94 1036,-42 984,-42"/>
</g>
<g id="clust6" class="cluster">
<title>cluster_5</title>
<polygon fill="none" stroke="#c0c0c0" points="507,-68 507,-120 559,-120 559,-68 507,-68"/>
</g>
<g id="clust7" class="cluster">
<title>cluster_6</title>
<polygon fill="none" stroke="#c0c0c0" points="507,-8 507,-60 559,-60 559,-8 507,-8"/>
</g>
<g id="clust8" class="cluster">
<title>cluster_7</title>
<polygon fill="none" stroke="#c0c0c0" points="30,-68 30,-120 82,-120 82,-68 30,-68"/>
</g>
<!-- I -->
<!-- 0 -->
<g id="node2" class="node">
<title>0</title>
<ellipse fill="none" stroke="#000000" cx="56" cy="-94" rx="18" ry="18"/>
<text text-anchor="middle" x="56" y="-90.3" font-family="Times,serif" font-size="14.00" fill="#000000">0</text>
</g>
<!-- I&#45;&gt;0 -->
<g id="edge1" class="edge">
<title>I&#45;&gt;0</title>
<path fill="none" stroke="#000000" d="M1.1233,-94C3.9234,-94 15.7247,-94 27.6695,-94"/>
<polygon fill="#000000" stroke="#000000" points="27.9808,-97.5001 37.9807,-94 27.9807,-90.5001 27.9808,-97.5001"/>
</g>
<!-- 6 -->
<g id="node4" class="node">
<title>6</title>
<ellipse fill="none" stroke="#000000" cx="533" cy="-154" rx="18" ry="18"/>
<text text-anchor="middle" x="533" y="-150.3" font-family="Times,serif" font-size="14.00" fill="#000000">6</text>
</g>
<!-- 0&#45;&gt;6 -->
<g id="edge2" class="edge">
<title>0&#45;&gt;6</title>
<path fill="none" stroke="#000000" d="M67.0384,-108.4241C73.4623,-115.6625 82.2144,-123.7717 92,-128 236.6476,-190.501 433.164,-169.4278 505.1286,-158.6694"/>
<polygon fill="#000000" stroke="#000000" points="505.8576,-162.0982 515.2029,-157.1068 504.7846,-155.181 505.8576,-162.0982"/>
<text text-anchor="middle" x="294.5" y="-188.8" font-family="Times,serif" font-size="14.00" fill="#000000">a &amp; !b &amp; !c &amp; !&quot;lock(l1)&quot; &amp; !&quot;lock(l2)&quot; &amp; !&quot;unlock(l1)&quot; &amp; !&quot;unlock(l2)&quot;</text>
<text text-anchor="middle" x="294.5" y="-173.8" font-family="Times,serif" font-size="14.00" fill="#000000">{0}</text>
</g>
<!-- 4 -->
<g id="node8" class="node">
<title>4</title>
<ellipse fill="none" stroke="#000000" cx="533" cy="-94" rx="18" ry="18"/>
<text text-anchor="middle" x="533" y="-90.3" font-family="Times,serif" font-size="14.00" fill="#000000">4</text>
</g>
<!-- 0&#45;&gt;4 -->
<g id="edge3" class="edge">
<title>0&#45;&gt;4</title>
<path fill="none" stroke="#000000" d="M74.1165,-94C146.6491,-94 416.426,-94 504.7838,-94"/>
<polygon fill="#000000" stroke="#000000" points="504.8655,-97.5001 514.8654,-94 504.8654,-90.5001 504.8655,-97.5001"/>
<text text-anchor="middle" x="294.5" y="-112.8" font-family="Times,serif" font-size="14.00" fill="#000000">!a &amp; !b &amp; !c &amp; &quot;lock(l1)&quot; &amp; !&quot;lock(l2)&quot; &amp; !&quot;unlock(l1)&quot; &amp; !&quot;unlock(l2)&quot;</text>
<text text-anchor="middle" x="294.5" y="-97.8" font-family="Times,serif" font-size="14.00" fill="#000000">{0}</text>
</g>
<!-- 5 -->
<g id="node9" class="node">
<title>5</title>
<ellipse fill="none" stroke="#000000" cx="533" cy="-34" rx="18" ry="18"/>
<text text-anchor="middle" x="533" y="-30.3" font-family="Times,serif" font-size="14.00" fill="#000000">5</text>
</g>
<!-- 0&#45;&gt;5 -->
<g id="edge4" class="edge">
<title>0&#45;&gt;5</title>
<path fill="none" stroke="#000000" d="M67.0384,-79.5759C73.4623,-72.3375 82.2144,-64.2283 92,-60 236.6476,2.501 433.164,-18.5722 505.1286,-29.3306"/>
<polygon fill="#000000" stroke="#000000" points="504.7846,-32.819 515.2029,-30.8932 505.8576,-25.9018 504.7846,-32.819"/>
<text text-anchor="middle" x="294.5" y="-78.8" font-family="Times,serif" font-size="14.00" fill="#000000">!a &amp; !b &amp; !c &amp; !&quot;lock(l1)&quot; &amp; &quot;lock(l2)&quot; &amp; !&quot;unlock(l1)&quot; &amp; !&quot;unlock(l2)&quot;</text>
<text text-anchor="middle" x="294.5" y="-63.8" font-family="Times,serif" font-size="14.00" fill="#000000">{0}</text>
</g>
<!-- 7 -->
<g id="node3" class="node">
<title>7</title>
<ellipse fill="none" stroke="#000000" cx="1010" cy="-154" rx="18" ry="18"/>
<text text-anchor="middle" x="1010" y="-150.3" font-family="Times,serif" font-size="14.00" fill="#000000">7</text>
</g>
<!-- 6&#45;&gt;7 -->
<g id="edge9" class="edge">
<title>6&#45;&gt;7</title>
<path fill="none" stroke="#000000" d="M551.1165,-154C623.6491,-154 893.426,-154 981.7838,-154"/>
<polygon fill="#000000" stroke="#000000" points="981.8655,-157.5001 991.8654,-154 981.8654,-150.5001 981.8655,-157.5001"/>
<text text-anchor="middle" x="771.5" y="-172.8" font-family="Times,serif" font-size="14.00" fill="#000000">!a &amp; b &amp; !c &amp; !&quot;lock(l1)&quot; &amp; !&quot;lock(l2)&quot; &amp; !&quot;unlock(l1)&quot; &amp; !&quot;unlock(l2)&quot;</text>
<text text-anchor="middle" x="771.5" y="-157.8" font-family="Times,serif" font-size="14.00" fill="#000000">{0}</text>
</g>
<!-- 1 -->
<g id="node5" class="node">
<title>1</title>
<ellipse fill="none" stroke="#000000" cx="1487" cy="-110" rx="18" ry="18"/>
<text text-anchor="middle" x="1487" y="-106.3" font-family="Times,serif" font-size="14.00" fill="#000000">1</text>
</g>
<!-- 3 -->
<g id="node6" class="node">
<title>3</title>
<ellipse fill="none" stroke="#000000" cx="1487" cy="-50" rx="18" ry="18"/>
<text text-anchor="middle" x="1487" y="-46.3" font-family="Times,serif" font-size="14.00" fill="#000000">3</text>
</g>
<!-- 2 -->
<g id="node7" class="node">
<title>2</title>
<ellipse fill="none" stroke="#000000" cx="1010" cy="-68" rx="18" ry="18"/>
<text text-anchor="middle" x="1010" y="-64.3" font-family="Times,serif" font-size="14.00" fill="#000000">2</text>
</g>
<!-- 2&#45;&gt;1 -->
<g id="edge5" class="edge">
<title>2&#45;&gt;1</title>
<path fill="none" stroke="#000000" d="M1025.5736,-77.5331C1031.7166,-80.819 1038.9752,-84.1387 1046,-86 1197.262,-126.0783 1387.6178,-117.5086 1458.6065,-112.3843"/>
<polygon fill="#000000" stroke="#000000" points="1459.2441,-115.846 1468.9506,-111.5994 1458.7144,-108.8661 1459.2441,-115.846"/>
<text text-anchor="middle" x="1248.5" y="-134.8" font-family="Times,serif" font-size="14.00" fill="#000000">!a &amp; !b &amp; !c &amp; !&quot;lock(l1)&quot; &amp; !&quot;lock(l2)&quot; &amp; &quot;unlock(l1)&quot; &amp; !&quot;unlock(l2)&quot;</text>
<text text-anchor="middle" x="1248.5" y="-119.8" font-family="Times,serif" font-size="14.00" fill="#000000">{0}</text>
</g>
<!-- 2&#45;&gt;3 -->
<g id="edge6" class="edge">
<title>2&#45;&gt;3</title>
<path fill="none" stroke="#000000" d="M1026.9377,-61.1606C1032.8666,-59.0886 1039.6342,-57.0775 1046,-56 1199.7148,-29.9812 1387.8806,-41.5546 1458.4617,-47.3817"/>
<polygon fill="#000000" stroke="#000000" points="1458.4951,-50.8972 1468.7567,-48.2609 1459.0908,-43.9226 1458.4951,-50.8972"/>
<text text-anchor="middle" x="1248.5" y="-74.8" font-family="Times,serif" font-size="14.00" fill="#000000">!a &amp; !b &amp; !c &amp; !&quot;lock(l1)&quot; &amp; !&quot;lock(l2)&quot; &amp; !&quot;unlock(l1)&quot; &amp; &quot;unlock(l2)&quot;</text>
<text text-anchor="middle" x="1248.5" y="-59.8" font-family="Times,serif" font-size="14.00" fill="#000000">{0}</text>
</g>
<!-- 4&#45;&gt;2 -->
<g id="edge7" class="edge">
<title>4&#45;&gt;2</title>
<path fill="none" stroke="#000000" d="M551.1165,-93.0125C623.6491,-89.059 893.426,-74.3541 981.7838,-69.538"/>
<polygon fill="#000000" stroke="#000000" points="982.0708,-73.0276 991.8654,-68.9885 981.6897,-66.038 982.0708,-73.0276"/>
<text text-anchor="middle" x="771.5" y="-109.8" font-family="Times,serif" font-size="14.00" fill="#000000">!a &amp; !b &amp; c &amp; !&quot;lock(l1)&quot; &amp; !&quot;lock(l2)&quot; &amp; !&quot;unlock(l1)&quot; &amp; !&quot;unlock(l2)&quot;</text>
<text text-anchor="middle" x="771.5" y="-94.8" font-family="Times,serif" font-size="14.00" fill="#000000">{0}</text>
</g>
<!-- 5&#45;&gt;2 -->
<g id="edge8" class="edge">
<title>5&#45;&gt;2</title>
<path fill="none" stroke="#000000" d="M550.5941,-29.9428C611.6571,-16.7138 819.1559,21.0816 974,-37 979.9367,-39.2268 985.5542,-42.9117 990.5089,-46.9781"/>
<polygon fill="#000000" stroke="#000000" points="988.4241,-49.815 998.1609,-53.9918 993.154,-44.6547 988.4241,-49.815"/>
<text text-anchor="middle" x="771.5" y="-55.8" font-family="Times,serif" font-size="14.00" fill="#000000">!a &amp; !b &amp; c &amp; !&quot;lock(l1)&quot; &amp; !&quot;lock(l2)&quot; &amp; !&quot;unlock(l1)&quot; &amp; !&quot;unlock(l2)&quot;</text>
<text text-anchor="middle" x="771.5" y="-40.8" font-family="Times,serif" font-size="14.00" fill="#000000">{0}</text>
</g>
</g>
</svg>
